<svg id="Layer_1" data-name="Layer 1" xmlns="http://www.w3.org/2000/svg" viewBox="0 0 130 130"><defs><style>.cls-1{fill:#efefef;}.cls-2{fill:#b3b3b3;}</style></defs><title>missing-image</title><rect class="cls-1" width="130" height="130"/><path class="cls-2" d="M65,53.43a3.23,3.23,0,0,1,2.65,1.82L77.79,72.16c1.46,2.42.33,4.41-2.5,4.41H54.71c-2.83,0-4-2-2.5-4.41L62.35,55.25A3.23,3.23,0,0,1,65,53.43M65,50a6.59,6.59,0,0,0-5.59,3.48L49.27,70.39A6,6,0,0,0,54.71,80H75.29a6,6,0,0,0,5.44-9.61L70.59,53.49A6.58,6.58,0,0,0,65,50Zm0,19.19a2.23,2.23,0,1,1-2.23,2.23A2.23,2.23,0,0,1,65,69.19Zm2.57-8.06a2.57,2.57,0,1,0-5.14,0,2.62,2.62,0,0,0,.19,1c.47,1.32,1.22,3.82,1.68,5.13a.75.75,0,0,0,1.4,0c.58-1.66,1.23-3.83,1.69-5.13A2.83,2.83,0,0,0,67.57,61.13Z"/></svg>